# xmcd CD database file
#
# Track frame offsets:
#	150
#	16745
#	32383
#	54865
#	79690
#	93412
#	119666
#	134143
#	153998
#	167220
#
# Disc length: 2340 seconds
#
# Revision: 0
# Processed by: cddbd v1.5.2PL0 Copyright (c) Steve Scherf et al.
# Submitted via: CDex 1.51
#
DISCID=7609220a
DTITLE=Danielle Miraglia - Box of Troubles
DYEAR=2011
DGENRE=Blues
TTITLE0=Fold My Hand
TTITLE1=Loud Talker
TTITLE2=Choir
TTITLE3=Home
TTITLE4=See the Light
TTITLE5=Another Round
TTITLE6=Stagger Lee
TTITLE7=Drive
TTITLE8=Glimmer of Gold
TTITLE9=Good Times
EXTD=YEAR: 2011
EXTT0=
EXTT1=
EXTT2=
EXTT3=
EXTT4=
EXTT5=
EXTT6=
EXTT7=
EXTT8=
EXTT9=
PLAYORDER=
